# xmcd CD database file
#
# Track frame offsets:
#	150
#	14055
#	25664
#	40703
#	51097
#	65650
#	81931
#	99076
#	114221
#	130448
#	144866
#	159635
#	177725
#	189253
#	201160
#	214342
#	231717
#	242475
#
# Disc length: 3359 seconds
#
# Revision: 2
# Processed by: cddbd v1.5.2PL0 Copyright (c) Steve Scherf et al.
# Submitted via: CDex 1.70beta2
#
DISCID=fc0d1d12
DTITLE=Various Artist - 50 Years Of Country - Disc 4 - 1972 - 1975
DYEAR=2000
DGENRE=Country
TTITLE0=George Jones - A Good Year For The Roses
TTITLE1=Sonny James - Bright Lights, Big City
TTITLE2=Merle Haggard - Daddy Frank (The Guitar Man)
TTITLE3=Tony Booth - The Key's In The Mailbox
TTITLE4=Glen Campbell - Rhinestone Cowboy
TTITLE5=Billie Jo Spears - Blanket On The Ground
TTITLE6=Nitty Gritty Dirt Band - All I Have To Do Is Dream
TTITLE7=Jessi Colter - I'm Not Lisa
TTITLE8=Charlie Rich - My Elusive Dreams
TTITLE9=Dr. Hook - If Not You
TTITLE10=Bellamy Brothers - Let Your Love Flow
TTITLE11=Johnny Cash - One Piece At A Time
TTITLE12=Crystal Gayle - Don't It Make My Brown Eyes Blue
TTITLE13=Billy Crash Craddock - I Cheated On A Good Woman's Love
TTITLE14=The Kendalls - Pittsburgh Stealers
TTITLE15=Don Gambler - The Gambler
TTITLE16=Hank Cochran and Willie Nelson - Ain't Life Hell
TTITLE17=Susie Allinson - Maybe Baby
EXTD=YEAR: 2000
EXTT0=
EXTT1=
EXTT2=
EXTT3=
EXTT4=
EXTT5=
EXTT6=
EXTT7=
EXTT8=
EXTT9=
EXTT10=
EXTT11=
EXTT12=
EXTT13=
EXTT14=
EXTT15=
EXTT16=
EXTT17=
PLAYORDER=
